<mxfile host="65bd71144e">
    <diagram id="1sKy8PD-Q9M54LZcMKn4" name="Page-1">
        <mxGraphModel dx="1126" dy="595" grid="1" gridSize="10" guides="1" tooltips="1" connect="1" arrows="1" fold="1" page="1" pageScale="1" pageWidth="850" pageHeight="1100" math="0" shadow="0">
            <root>
                <mxCell id="0"/>
                <mxCell id="1" parent="0"/>
                <mxCell id="24" style="edgeStyle=none;html=1;entryX=0.5;entryY=0;entryDx=0;entryDy=0;entryPerimeter=0;fontColor=#DDD894;" edge="1" parent="1" source="2" target="3">
                    <mxGeometry relative="1" as="geometry"/>
                </mxCell>
                <mxCell id="2" value="Start" style="html=1;dashed=0;whitespace=wrap;shape=mxgraph.dfd.start" vertex="1" parent="1">
                    <mxGeometry x="365" y="20" width="80" height="30" as="geometry"/>
                </mxCell>
                <mxCell id="8" style="edgeStyle=none;html=1;entryX=0.5;entryY=0;entryDx=0;entryDy=0;entryPerimeter=0;fontColor=#DDD894;" edge="1" parent="1" source="3" target="4">
                    <mxGeometry relative="1" as="geometry"/>
                </mxCell>
                <mxCell id="23" style="edgeStyle=none;html=1;fontColor=#DDD894;entryX=1;entryY=0.5;entryDx=0;entryDy=0;entryPerimeter=0;" edge="1" parent="1" source="3" target="7">
                    <mxGeometry relative="1" as="geometry">
                        <mxPoint x="730" y="690" as="targetPoint"/>
                        <Array as="points">
                            <mxPoint x="730" y="135"/>
                            <mxPoint x="730" y="660"/>
                        </Array>
                    </mxGeometry>
                </mxCell>
                <mxCell id="25" value="i &amp;gt;= endI" style="edgeLabel;html=1;align=center;verticalAlign=middle;resizable=0;points=[];fontColor=#DDD894;" vertex="1" connectable="0" parent="23">
                    <mxGeometry x="-0.9326" y="1" relative="1" as="geometry">
                        <mxPoint as="offset"/>
                    </mxGeometry>
                </mxCell>
                <mxCell id="3" value="i = 0...endI&amp;nbsp;" style="html=1;dashed=0;whitespace=wrap;shape=mxgraph.dfd.loop" vertex="1" parent="1">
                    <mxGeometry x="160" y="120" width="490" height="30" as="geometry"/>
                </mxCell>
                <mxCell id="9" style="edgeStyle=none;html=1;entryX=0.5;entryY=0;entryDx=0;entryDy=0;fontColor=#DDD894;" edge="1" parent="1" source="4" target="5">
                    <mxGeometry relative="1" as="geometry"/>
                </mxCell>
                <mxCell id="19" style="edgeStyle=none;html=1;fontColor=#DDD894;entryX=-0.001;entryY=0.494;entryDx=0;entryDy=0;entryPerimeter=0;" edge="1" parent="1" source="4" target="3">
                    <mxGeometry relative="1" as="geometry">
                        <mxPoint x="110" y="120" as="targetPoint"/>
                        <Array as="points">
                            <mxPoint x="700" y="255"/>
                            <mxPoint x="700" y="570"/>
                            <mxPoint x="110" y="570"/>
                            <mxPoint x="110" y="135"/>
                        </Array>
                    </mxGeometry>
                </mxCell>
                <mxCell id="21" value="j &amp;gt;= endJ" style="edgeLabel;html=1;align=center;verticalAlign=middle;resizable=0;points=[];fontColor=#DDD894;" vertex="1" connectable="0" parent="19">
                    <mxGeometry x="-0.9805" relative="1" as="geometry">
                        <mxPoint x="16" as="offset"/>
                    </mxGeometry>
                </mxCell>
                <mxCell id="22" value="i++" style="edgeLabel;html=1;align=center;verticalAlign=middle;resizable=0;points=[];fontColor=#DDD894;" vertex="1" connectable="0" parent="19">
                    <mxGeometry x="0.9514" y="2" relative="1" as="geometry">
                        <mxPoint x="6" as="offset"/>
                    </mxGeometry>
                </mxCell>
                <mxCell id="4" value="&amp;nbsp;j = 0...endJ" style="html=1;dashed=0;whitespace=wrap;shape=mxgraph.dfd.loop" vertex="1" parent="1">
                    <mxGeometry x="160" y="240" width="490" height="30" as="geometry"/>
                </mxCell>
                <mxCell id="10" style="edgeStyle=none;html=1;entryX=0.5;entryY=0;entryDx=0;entryDy=0;fontColor=#DDD894;" edge="1" parent="1" source="5" target="6">
                    <mxGeometry relative="1" as="geometry"/>
                </mxCell>
                <mxCell id="11" value="True" style="edgeLabel;html=1;align=center;verticalAlign=middle;resizable=0;points=[];fontColor=#DDD894;" vertex="1" connectable="0" parent="10">
                    <mxGeometry x="-0.5007" y="-2" relative="1" as="geometry">
                        <mxPoint x="2" y="12" as="offset"/>
                    </mxGeometry>
                </mxCell>
                <mxCell id="15" style="edgeStyle=none;html=1;fontColor=#DDD894;entryX=-0.001;entryY=0.578;entryDx=0;entryDy=0;entryPerimeter=0;" edge="1" parent="1" source="5" target="4">
                    <mxGeometry relative="1" as="geometry">
                        <mxPoint x="110" y="250" as="targetPoint"/>
                        <Array as="points">
                            <mxPoint x="160" y="385"/>
                        </Array>
                    </mxGeometry>
                </mxCell>
                <mxCell id="16" value="j++" style="edgeLabel;html=1;align=center;verticalAlign=middle;resizable=0;points=[];fontColor=#DDD894;" vertex="1" connectable="0" parent="15">
                    <mxGeometry x="-0.3903" y="1" relative="1" as="geometry">
                        <mxPoint x="-45" y="-66" as="offset"/>
                    </mxGeometry>
                </mxCell>
                <mxCell id="17" value="False" style="edgeLabel;html=1;align=center;verticalAlign=middle;resizable=0;points=[];fontColor=#DDD894;" vertex="1" connectable="0" parent="15">
                    <mxGeometry x="-0.6326" relative="1" as="geometry">
                        <mxPoint as="offset"/>
                    </mxGeometry>
                </mxCell>
                <mxCell id="5" value="&lt;font face=&quot;MontserratAlternates-Regular, Consolas, Courier New, monospace&quot; color=&quot;#abb2bf&quot;&gt;&lt;span style=&quot;font-size: 18px;&quot;&gt;arr[j] &amp;gt; arr[j + 1]&lt;/span&gt;&lt;/font&gt;" style="shape=hexagon;perimeter=hexagonPerimeter2;whiteSpace=wrap;html=1;size=0.25;" vertex="1" parent="1">
                    <mxGeometry x="280" y="350" width="250" height="70" as="geometry"/>
                </mxCell>
                <mxCell id="6" value="[arr[j], arr[j + 1]] = [arr[j + 1], arr[j]]" style="html=1;dashed=0;whitespace=wrap;" vertex="1" parent="1">
                    <mxGeometry x="305" y="490" width="200" height="50" as="geometry"/>
                </mxCell>
                <mxCell id="7" value="End" style="html=1;dashed=0;whitespace=wrap;shape=mxgraph.dfd.start" vertex="1" parent="1">
                    <mxGeometry x="365" y="650" width="80" height="30" as="geometry"/>
                </mxCell>
                <mxCell id="14" value="endI=arr.length-1,&lt;br&gt;endJ=endI-i" style="html=1;dashed=0;whitespace=wrap;fontColor=#DDD894;" vertex="1" parent="1">
                    <mxGeometry x="680" y="10" width="100" height="50" as="geometry"/>
                </mxCell>
            </root>
        </mxGraphModel>
    </diagram>
</mxfile>